<svg width="47" height="47" viewBox="0 0 47 47" fill="none" xmlns="http://www.w3.org/2000/svg">
<g clip-path="url(#clip0_149_41)">
<path d="M23.4992 46.9985C36.4775 46.9985 46.9985 36.4775 46.9985 23.4992C46.9985 10.521 36.4775 0 23.4992 0C10.521 0 0 10.521 0 23.4992C0 36.4775 10.521 46.9985 23.4992 46.9985Z" fill="url(#paint0_linear_149_41)"/>
<path d="M35.8645 29.2149L38.0683 31.6687L38.2631 30.5691C37.9947 31.0951 38.8995 32.1119 38.6127 32.5935C37.6082 34.2804 36.5945 35.7695 35.3615 36.9028C33.8081 38.342 31.9941 39.471 30.0169 40.2292C28.0376 40.9888 25.7975 41.3687 23.2967 41.3687C17.7533 41.3687 13.4189 39.5524 10.2934 35.9198C7.16796 32.2872 5.60522 28.1788 5.60522 23.5943C5.60522 19.2849 6.9282 15.4438 9.57416 12.0709C12.9297 7.783 17.42 5.63904 23.0452 5.63904C28.8391 5.63904 33.465 7.83719 36.9227 12.2335C39.3765 15.3365 40.6268 19.2088 40.6739 23.8504H10.1017C10.1845 27.7969 11.4457 31.0317 13.8851 33.555C16.3245 36.0783 19.3365 37.3399 22.921 37.3399C24.6429 37.3386 26.3508 37.0312 27.965 36.432C29.4907 35.8944 30.9054 35.0826 32.1394 34.0366C33.2896 33.0418 34.5313 31.4346 35.8645 29.2149ZM35.8645 20.0655C35.2818 17.7345 34.4322 15.8712 33.3157 14.4756C32.1992 13.08 30.7249 11.9554 28.8928 11.1017C27.0824 10.254 25.1071 9.81678 23.1081 9.82114C19.7731 9.82114 16.9073 10.8947 14.5108 13.0417C12.7594 14.6029 11.4354 16.9447 10.5388 20.0671L35.8645 20.0655Z" fill="white"/>
<path d="M38.0684 24.8228H38.7416C38.5484 28.1001 40.0743 29.4726 42.9437 29.3607V29.8054C39.9501 29.6659 38.5637 31.1626 38.6849 34.1899H38.2647L38.1803 24.8197" fill="white"/>
<path d="M38.4917 24.8212H37.82C38.0132 28.097 36.4857 29.4696 33.6179 29.3576V29.8054C36.6115 29.6659 37.9979 31.1611 37.8767 34.1884H38.2954L38.3797 24.8197" fill="white"/>
</g>
<defs>
<linearGradient id="paint0_linear_149_41" x1="0" y1="23.4992" x2="47" y2="23.4992" gradientUnits="userSpaceOnUse">
<stop offset="0.1" stop-color="#3E2469"/>
<stop offset="0.2" stop-color="#43246D"/>
<stop offset="0.31" stop-color="#532477"/>
<stop offset="0.41" stop-color="#662483"/>
<stop offset="0.59" stop-color="#821F82"/>
<stop offset="0.7" stop-color="#951B81"/>
<stop offset="0.82" stop-color="#931D82"/>
<stop offset="0.89" stop-color="#8E2585"/>
<stop offset="0.94" stop-color="#84338B"/>
<stop offset="0.95" stop-color="#82368C"/>
</linearGradient>
<clipPath id="clip0_149_41">
<rect width="47" height="47" fill="white"/>
</clipPath>
</defs>
</svg>
